<?xml version="1.0" encoding="iso-8859-1"?>
<!-- Uploaded to: SVG Repo, www.svgrepo.com, Generator: SVG Repo Mixer Tools -->
<svg height="800px" width="800px" version="1.1" id="Layer_1" xmlns="http://www.w3.org/2000/svg" xmlns:xlink="http://www.w3.org/1999/xlink" 
	 viewBox="0 0 512 512" xml:space="preserve">
<path style="fill:#D43020;" d="M293.24,203.272l-2.005,1.103c-4.31-3.709-10.425-6.014-17.342-6.014
	c-13.833,0-25.061,9.222-25.061,20.048h-0.2l0.2-115.278c0-10.826-11.227-20.048-25.061-20.048s-25.061,9.222-25.061,20.048
	l-0.1,122.395h-0.602c-48.818-11.327-85.206-55.033-85.206-107.359c0-60.948,49.32-110.266,110.266-110.266
	S333.337,57.22,333.337,118.168C333.336,152.45,317.699,183.024,293.24,203.272z"/>
<path style="fill:#FFD7A3;" d="M348.373,218.409c0-10.826,11.929-20.048,25.762-20.048s25.061,8.821,25.061,19.648v225.945
	l-30.073,60.145H198.01l-55.133-125.302v-85.206c0,0-5.013-50.121,55.133-50.121l0.501,80.193l0.1-98.136l0.1-122.395
	c0-10.826,11.227-20.048,25.061-20.048s25.061,9.222,25.061,20.048l-0.2,115.278h0.2c0-10.826,11.227-20.048,25.061-20.048
	c6.917,0,13.032,2.305,17.342,6.014c4.411,3.608,7.017,8.621,7.017,14.034c0-10.826,11.929-20.048,25.762-20.048
	C337.847,198.361,348.373,207.583,348.373,218.409z"/>
<path style="fill:#FFE1B2;" d="M198.232,278.941l-0.007-1.149l-0.215-34.321c-5.783,0-10.791,0.582-15.432,1.419
	c-43.625,7.873-39.701,48.702-39.701,48.702v85.206l55.133,125.301h171.113l30.072-60.145v-4.537
	C313.973,417.364,241.572,358.487,198.232,278.941z"/>
<path style="fill:#F23222;" d="M112.804,118.168c0,52.326,36.388,96.032,85.206,107.359h0.602l0.1-122.395
	c0-10.638,10.857-19.677,24.359-19.99V7.901C162.123,7.901,112.804,57.22,112.804,118.168z"/>
<path d="M374.135,190.46c-10.06,0-19.259,3.89-25.489,9.92c-5.923-6.064-14.767-9.92-24.632-9.92c-2.793,0-5.516,0.31-8.132,0.872
	c16.311-20.68,25.356-46.31,25.356-73.164C341.237,53.01,288.229,0,223.071,0S104.903,53.01,104.903,118.168
	c0,26.861,9.249,53.144,26.042,74.008c15.332,19.048,36.39,32.956,59.758,39.607l-0.003,4.028
	c-18.351,1.25-32.576,7.334-42.35,18.134c-14.438,15.955-13.625,36.521-13.374,39.964v86.549L192.854,512h181.152l33.09-66.181
	v-227.81C407.097,202.818,392.31,190.46,374.135,190.46z M143.256,182.268c-14.752-18.328-22.55-40.493-22.55-64.1
	c0-56.444,45.921-102.365,102.365-102.365s102.365,45.921,102.365,102.365c0,29.367-12.484,57.05-34.37,76.548
	c-5.046-2.766-10.954-4.256-17.171-4.256c-6.348,0-12.283,1.529-17.318,4.177l0.159-91.506c0-15.412-14.787-27.949-32.962-27.949
	c-18.176,0-32.962,12.538-32.962,27.943l-0.094,112.127C172.205,209.075,155.593,197.595,143.256,182.268z M391.294,442.089
	l-27.055,54.109H203.166l-52.387-119.063V293.59l-0.036-0.748c-0.015-0.164-1.358-16.608,9.432-28.413
	c6.662-7.289,16.727-11.556,29.986-12.726l0.45,72.01l15.802-0.041l0.201-220.541c0-6.472,8.018-12.147,17.159-12.147
	c9.141,0,17.159,5.676,17.159,12.134l-0.201,150.376h15.802v-35.071l0.201-0.014c0-6.472,8.018-12.147,17.159-12.147
	c4.717,0,9.158,1.495,12.188,4.101l0.151,0.126c2.657,2.173,4.119,4.985,4.119,7.919v40.097h15.802v-40.097
	c0-5.733,7.639-12.147,17.861-12.147c9.075,0,16.458,5.45,16.458,12.147v40.097h15.802v-40.097c0-5.733,7.638-12.147,17.861-12.147
	c9.301,0,17.159,5.378,17.159,11.745v224.081H391.294z"/>
<path style="fill:#FFFFFF;" d="M289.531,168.031l-12.634-9.492c8.801-11.714,13.453-25.674,13.453-40.371
	c0-37.099-30.182-67.281-67.28-67.281s-67.281,30.182-67.281,67.281c0,14.697,4.652,28.657,13.453,40.371l-12.634,9.492
	c-10.874-14.472-16.622-31.715-16.622-49.863c0-45.812,37.271-83.083,83.083-83.083c45.811,0,83.082,37.271,83.082,83.083
	C306.153,136.316,300.405,153.559,289.531,168.031z"/>
</svg>